<svg clip-rule="evenodd" fill-rule="evenodd" height="316.227766" image-rendering="optimizeQuality" shape-rendering="geometricPrecision" text-rendering="geometricPrecision" viewBox="0 0 2092 2092" width="316.227766" xmlns="http://www.w3.org/2000/svg"><g fill="#fefefe"><path d="m1058 1409 28 86h90l-73 53 28 85-73-52-73 52 28-85-73-53h90z"/><path d="m1442 814 28 85h90l-73 53 28 86-73-53-73 53 28-86-73-53h90z"/><path d="m1157 984 21 64h67l-55 40 21 63-54-39-54 39 20-63-54-40h67z"/><path d="m1041 459 27 85h91l-73 53 27 86-72-53-73 53 28-86-73-53h90z"/><path d="m650 807 28 85h90l-73 53 28 86-73-53-73 53 28-86-73-53h90z"/><path d="m321 1391-35 18 10 21c7 14 16 28 33 19 16-8 11-21 4-34z"/><path d="m407 1610c-31 30-22 54-11 65 10 11 34 21 66-9 31-30 22-54 11-66-10-11-34-21-66 10z"/><path d="m1612 371c8-10 7-20-12-34l-22-18-24 31 25 20c9 7 22 15 33 1z"/><path d="m523 337c-8-10-18-11-36 3l-22 18 25 31 24-20c9-7 20-18 9-32z"/><path d="m1768 601c36-25 31-50 23-63-9-13-31-27-67-2-36 24-31 50-23 63 9 12 31 26 67 2z"/><path d="m667 1751-25-13-19 34 28 15c10 6 25 12 33-4 6-11 3-20-17-32z"/><path d="m1978 1222-23 109-192-42 22-105c11-51 42-55 62-51 19 4 28 16 32 32 10-16 27-29 55-23 39 8 52 46 44 80zm-101 291c-29 53-67 66-114 39l-106-59 30-53 94 53c17 9 39 22 54-4 14-25-8-37-26-47l-93-53 29-52 106 59c47 26 56 65 26 117zm-214 258-139-139 43-43 104 104 61-62 36 36zm-153 110c-56 31-109 9-137-42-31-54-16-109 37-138 47-26 87-16 115 25l-51 29c-5-6-20-23-42-10-25 13-19 42-6 65 12 23 34 43 59 29 17-10 17-26 12-44l52-29c19 35 11 87-39 115zm-487 120-12-196 163-10 3 50-102 6 1 25 93-6 3 47-93 5 2 25 105-7 3 51zm-64-150-54-12-32 143-59-13 32-143-54-11 11-50 166 37zm-217-48c-10 18-28 32-49 29 11 14 11 35 1 57-4 9-15 30-14 40l-53-29c2-10 6-19 10-29 8-17 15-35-6-46l-28-16-33 60-53-29 95-172 101 55c30 17 47 48 29 80zm-382-94c-41-43-38-102 5-143 44-42 102-43 144 0 41 44 38 102-5 144-44 41-102 42-144-1zm-100-247-16-32-53 27-28-54 176-89 46 91c24 47-3 82-28 94-42 22-77 3-97-37zm-150-234c-4-22-8-86 53-99l12 60c-5 1-9 2-12 4-11 7-11 20-9 32 2 9 8 24 22 21 11-2 12-11 15-46 2-33 4-69 43-77 44-8 71 26 79 66 8 42-1 82-47 93l-11-57c7 0 11-4 14-10 2-5 2-12 1-18-2-8-6-21-17-19-14 4-11 32-14 61-2 29-9 58-45 65-50 10-75-33-84-76zm-3-340 197 15-14 163-50-4 8-102-24-2-8 92-46-3 7-93-24-2-9 105-50-4zm154-378c30-45 70-53 114-30l-33 49c-6-3-27-11-42 10-15 24 3 46 24 61 22 15 50 23 66-1 12-17 4-31-9-45l33-49c33 22 50 72 18 120-36 53-93 58-141 26-52-35-64-90-30-141zm217-223c27-21 62-25 86 4 13 16 19 38 8 57 17-6 36 2 53 20 7 7 22 25 32 29l-48 38c-8-6-15-13-23-21-13-13-26-28-45-13l-25 21 43 53-47 38-124-153zm200-115 39 100c7 18 16 42 44 31 26-10 17-34 10-52l-39-100 56-22 44 112c20 51 2 86-54 108s-93 8-113-43l-44-112zm383-78 3 44-85 108 97-7 3 51-175 12-3-47 84-105-87 6-3-50zm105 7 160 35-11 49-100-21-5 24 90 19-10 46-90-20-6 24 103 23-10 49-162-35zm251 72 55 26-84 178-55-26zm233 143c27 22 39 55 16 84-13 16-33 27-54 21 9 15 6 36-7 56-6 8-20 27-21 38l-48-38c4-10 9-18 15-27 10-15 21-32 2-47l-25-20-43 54-47-37 121-155zm107 730c0 393-320 714-711 714s-711-321-711-714 320-714 711-714 711 321 711 714zm74-536c34 50 21 107-29 141-50 33-108 25-141-25-34-49-21-107 29-140 50-34 108-25 141 24zm80 397 7 93 25-2-8-105 50-4 13 166-197 15-12-163 51-3 7 101 25-1-7-93zm-165-558c-179-179-427-290-700-290-273 0-521 111-700 290-180 179-291 425-291 697 0 272 111 518 291 697 179 179 427 290 700 290 273 0 521-111 700-290s291-425 291-697-112-518-291-697z"/><path d="m1916 1200c-11-3-19 3-22 17l-8 37 36 8 7-35c3-13 2-24-13-27z"/><path d="m1845 1191c-9-2-15 6-17 18l-7 31 29 6 7-31c3-12 1-21-12-24z"/><path d="m1767 1764c-185 185-440 299-721 299-281 0-536-114-721-299-185-184-300-438-300-718 0-280 115-534 300-718 185-185 440-299 721-299 281 0 536 114 721 299 185 184 300 438 300 718s-115 534-300 718zm-721-1764c-578 0-1046 468-1046 1046s468 1046 1046 1046 1046-468 1046-1046-468-1046-1046-1046z"/><path d="m517 1840 95-172 101 55c30 17 47 48 29 80-10 18-28 32-49 29 11 14 11 35 1 57-4 9-15 30-14 40l-53-29c2-10 6-19 10-29 8-17 15-35-6-46l-28-16-33 60zm297 129 32-143-54-11 11-50 166 37-10 49-54-12-32 143zm209 32-12-196 163-10 3 50-102 6 1 25 93-6 3 47-93 5 2 25 105-7 3 51zm-677-258c179 179 427 290 700 290 273 0 521-111 700-290s291-425 291-697-112-518-291-697-427-290-700-290c-273 0-521 111-700 290-180 179-291 425-291 697s111 518 291 697zm700 17c-391 0-711-321-711-714s320-714 711-714 711 321 711 714-320 714-711 714zm-542-50c-44 41-102 42-144-1-41-43-38-102 5-143 44-42 102-43 144 0 41 44 38 102-5 144zm1212-321 29-52 106 59c47 26 56 65 26 117-29 53-67 66-114 39l-106-59 30-53 94 53c17 9 39 22 54-4 14-25-8-37-26-47zm239-58-192-42 22-105c11-51 42-55 62-51 19 4 28 16 32 32 10-16 27-29 55-23 39 8 52 46 44 80zm-582 508c-31-54-16-109 37-138 47-26 87-16 115 25l-51 29c-5-6-20-23-42-10-25 13-19 42-6 65 12 23 34 43 59 29 17-10 17-26 12-44l52-29c19 35 11 87-39 115-56 31-109 9-137-42zm290-68-139-139 43-43 104 104 61-62 36 36zm-1306-272c-42 22-77 3-97-37l-16-32-53 27-28-54 176-89 46 91c24 47-3 82-28 94zm-163-195c-50 10-75-33-84-76-4-22-8-86 53-99l12 60c-5 1-9 2-12 4-11 7-11 20-9 32 2 9 8 24 22 21 11-2 12-11 15-46 2-33 4-69 43-77 44-8 71 26 79 66 8 42-1 82-47 93l-11-57c7 0 11-4 14-10 2-5 2-12 1-18-2-8-6-21-17-19-14 4-11 32-14 61-2 29-9 58-45 65zm30-346-8 92-46-3 7-93-24-2-9 105-50-4 13-165 197 15-14 163-50-4 8-102zm208-333c-36 53-93 58-141 26-52-35-64-90-30-141 30-45 70-53 114-30l-33 49c-6-3-27-11-42 10-15 24 3 46 24 61 22 15 50 23 66-1 12-17 4-31-9-45l33-49c33 22 50 72 18 120zm80-112-124-153 90-73c27-21 62-25 86 4 13 16 19 38 8 57 17-6 36 2 53 20 7 7 22 25 32 29l-48 38c-8-6-15-13-23-21-13-13-26-28-45-13l-25 21 43 53zm266-164c-56 22-93 8-113-43l-44-112 57-22 39 100c7 18 16 42 44 31 26-10 17-34 10-52l-39-100 56-22 44 112c20 51 2 86-54 108zm301-59-175 12-3-47 84-105-87 6-3-50 166-12 3 44-85 108 97-7zm208 39-162-35 41-193 160 35-11 49-100-21-5 24 90 19-10 46-90-20-6 24 103 23zm101 48-55-26 84-178 55 26zm196 138-48-38c4-10 9-18 15-27 10-15 21-32 2-47l-25-20-43 54-47-37 121-155 91 71c27 22 39 55 16 84-13 16-33 27-54 21 9 15 6 36-7 56-6 8-20 27-21 38zm218 136c-50 33-108 25-141-25-34-49-21-107 29-140 50-34 108-25 141 24 34 50 21 107-29 141zm-1 419-12-163 51-3 7 101 25-1-7-93 46-4 7 93 25-2-8-105 50-4 13 166z"/><path d="m396 1675c10 11 34 21 66-9 31-30 22-54 11-66-10-11-34-21-66 10-31 30-22 54-11 65z"/><path d="m329 1449c16-8 11-21 4-34l-12-24-35 18 10 21c7 14 16 28 33 19z"/><path d="m1046 2063c-281 0-536-114-721-299-185-184-300-438-300-718s115-534 300-718c185-185 440-299 721-299 281 0 536 114 721 299 185 184 300 438 300 718s-115 534-300 718c-185 185-440 299-721 299zm-1046-1017c0 578 468 1046 1046 1046s1046-468 1046-1046-468-1046-1046-1046-1046 468-1046 1046z"/><path d="m651 1787c10 6 25 12 33-4 6-11 3-20-17-32l-25-13-19 34z"/><path d="m1013 1548-28 85 73-52 73 52-28-85 73-53h-90l-28-86-28 86h-90z"/><path d="m1103 1151 54-39 54 39-21-63 55-40h-67l-21-64-21 64h-67l54 40z"/><path d="m1397 952-28 86 73-53 73 53-28-86 73-53h-90l-28-85-28 85h-90z"/><path d="m1113 683-27-86 73-53h-91l-27-85-28 85h-90l73 53-28 86 73-53z"/><path d="m678 892-28-85-28 85h-90l73 53-28 86 73-53 73 53-28-86 73-53z"/><path d="m490 389 24-20c9-7 20-18 9-32-8-10-18-11-36 3l-22 18z"/><path d="m1578 319-24 31 25 20c9 7 22 15 33 1 8-10 7-20-12-34z"/><path d="m1724 536c-36 24-31 50-23 63 9 12 31 26 67 2 36-25 31-50 23-63-9-13-31-27-67-2z"/><path d="m1845 1191c-9-2-15 6-17 18l-7 31 29 6 7-31c3-12 1-21-12-24z"/><path d="m1894 1217-8 37 36 8 7-35c3-13 2-24-13-27-11-3-19 3-22 17z"/></g><path d="m346 1743c-180-179-291-425-291-697s111-518 291-697c179-179 427-290 700-290 273 0 521 111 700 290s291 425 291 697-112 518-291 697-427 290-700 290c-273 0-521-111-700-290zm-321-697c0 280 115 534 300 718 185 185 440 299 721 299 281 0 536-114 721-299 185-184 300-438 300-718s-115-534-300-718c-185-185-440-299-721-299-281 0-536 114-721 299-185 184-300 438-300 718z" fill="#2f529e"/><path d="m335 1046c0 393 320 714 711 714s711-321 711-714-320-714-711-714-711 321-711 714zm650 587 28-85-73-53h90l28-86 28 86h90l-73 53 28 85-73-52zm118-482 20-63-54-40h67l21-64 21 64h67l-55 40 21 63-54-39zm10-468-72-53-73 53 28-86-73-53h90l28-85 27 85h91l-73 53zm256 355 28-86-73-53h90l28-85 28 85h90l-73 53 28 86-73-53zm-646-7-73-53-73 53 28-86-73-53h90l28-85 28 85h90l-73 53z" fill="#2f529e"/><path d="m904 302 175-12-3-51-97 7 85-108-3-44-166 12 3 50 87-6-84 105z" fill="#2f529e"/><path d="m1166 101-41 193 162 35 10-49-103-23 6-24 90 20 10-46-90-19 5-24 100 21 11-49z" fill="#2f529e"/><path d="m1417 173-84 178 55 26 84-178z" fill="#2f529e"/><path d="m1559 245-121 155 47 37 43-54 25 20c19 15 8 32-2 47-6 9-11 17-15 27l48 38c1-11 15-30 21-38 13-20 16-41 7-56 21 6 41-5 54-21 23-29 11-62-16-84zm53 126c-11 14-24 6-33-1l-25-20 24-31 22 18c19 14 20 24 12 34z" fill="#2f529e"/><path d="m1831 510c-33-49-91-58-141-24-50 33-63 91-29 140 33 50 91 58 141 25 50-34 63-91 29-141zm-130 89c-8-13-13-39 23-63 36-25 58-11 67 2 8 13 13 38-23 63-36 24-58 10-67-2z" fill="#2f529e"/><path d="m291 651c48 32 105 27 141-26 32-48 15-98-18-120l-33 49c13 14 21 28 9 45-16 24-44 16-66 1-21-15-39-37-24-61 15-21 36-13 42-10l33-49c-44-23-84-15-114 30-34 51-22 106 30 141z" fill="#2f529e"/><path d="m388 360 124 153 47-38-43-53 25-21c19-15 32 0 45 13 8 8 15 15 23 21l48-38c-10-4-25-22-32-29-17-18-36-26-53-20 11-19 5-41-8-57-24-29-59-25-86-4zm135-23c11 14 0 25-9 32l-24 20-25-31 22-18c18-14 28-13 36-3z" fill="#2f529e"/><path d="m665 306c20 51 57 65 113 43s74-57 54-108l-44-112-56 22 39 100c7 18 16 42-10 52-28 11-37-13-44-31l-39-100-57 22z" fill="#2f529e"/><path d="m304 903-197-15-13 165 50 4 9-105 24 2-7 93 46 3 8-92 24 2-8 102 50 4z" fill="#2f529e"/><path d="m313 1189c-8-40-35-74-79-66-39 8-41 44-43 77-3 35-4 44-15 46-14 3-20-12-22-21-2-12-2-25 9-32 3-2 7-3 12-4l-12-60c-61 13-57 77-53 99 9 43 34 86 84 76 36-7 43-36 45-65 3-29 0-57 14-61 11-2 15 11 17 19 1 6 1 13-1 18-3 6-7 10-14 10l11 57c46-11 55-51 47-93z" fill="#2f529e"/><path d="m339 1314-176 89 28 54 53-27 16 32c20 40 55 59 97 37 25-12 52-47 28-94zm-53 95 35-18 12 24c7 13 12 26-4 34-17 9-26-5-33-19z" fill="#2f529e"/><path d="m509 1566c-42-43-100-42-144 0-43 41-46 100-5 143 42 43 100 42 144 1 43-42 46-100 5-144zm-102 44c32-31 56-21 66-10 11 12 20 36-11 66-32 30-56 20-66 9-11-11-20-35 11-65z" fill="#2f529e"/><path d="m612 1668-95 172 53 29 33-60 28 16c21 11 14 29 6 46-4 10-8 19-10 29l53 29c-1-10 10-31 14-40 10-22 10-43-1-57 21 3 39-11 49-29 18-32 1-63-29-80zm11 104 19-34 25 13c20 12 23 21 17 32-8 16-23 10-33 4z" fill="#2f529e"/><path d="m846 1826-32 143 59 13 32-143 54 12 10-49-166-37-11 50z" fill="#2f529e"/><path d="m1011 1805 12 196 166-10-3-51-105 7-2-25 93-5-3-47-93 6-1-25 102-6-3-50z" fill="#2f529e"/><path d="m1410 1701c-53 29-68 84-37 138 28 51 81 73 137 42 50-28 58-80 39-115l-52 29c5 18 5 34-12 44-25 14-47-6-59-29-13-23-19-52 6-65 22-13 37 4 42 10l51-29c-28-41-68-51-115-25z" fill="#2f529e"/><path d="m1524 1632 139 139 105-104-36-36-61 62-104-104z" fill="#2f529e"/><path d="m1657 1493 106 59c47 27 85 14 114-39 30-52 21-91-26-117l-106-59-29 52 93 53c18 10 40 22 26 47-15 26-37 13-54 4l-94-53z" fill="#2f529e"/><path d="m1763 1289 192 42 23-109c8-34-5-72-44-80-28-6-45 7-55 23-4-16-13-28-32-32-20-4-51 0-62 51zm159-27-36-8 8-37c3-14 11-20 22-17 15 3 16 14 13 27zm-65-47-7 31-29-6 7-31c2-12 8-20 17-18 13 3 15 12 12 24z" fill="#2f529e"/><path d="m1801 1070 197-15-13-166-50 4 8 105-25 2-7-93-46 4 7 93-25 1-7-101-51 3z" fill="#2f529e"/></svg>